<?xml version="1.0" encoding="UTF-8" standalone="no"?>
<!DOCTYPE svg PUBLIC "-//W3C//DTD SVG 1.1//EN"
 "http://www.w3.org/Graphics/SVG/1.1/DTD/svg11.dtd">
<!-- Generated by graphviz version 12.2.1 (20241206.2353)
 -->
<!-- Title: G Pages: 1 -->
<svg width="447pt" height="193pt"
 viewBox="0.00 0.00 447.20 192.95" xmlns="http://www.w3.org/2000/svg" xmlns:xlink="http://www.w3.org/1999/xlink">
<g id="graph0" class="graph" transform="scale(1 1) rotate(0) translate(21.6 171.35)">
<title>G</title>
<polygon fill="#111111" stroke="none" points="-21.6,21.6 -21.6,-171.35 425.6,-171.35 425.6,21.6 -21.6,21.6"/>
<!-- config.ts -->
<g id="node1" class="node">
<title>config.ts</title>
<path fill="none" stroke="#c6c5fe" d="M106.33,-23.75C106.33,-23.75 55.92,-23.75 55.92,-23.75 51.96,-23.75 48,-19.79 48,-15.83 48,-15.83 48,-7.92 48,-7.92 48,-3.96 51.96,0 55.92,0 55.92,0 106.33,0 106.33,0 110.29,0 114.25,-3.96 114.25,-7.92 114.25,-7.92 114.25,-15.83 114.25,-15.83 114.25,-19.79 110.29,-23.75 106.33,-23.75"/>
<text text-anchor="middle" x="81.12" y="-6.45" font-family="Arial" font-size="14.00" fill="#c6c5fe">config.ts</text>
</g>
<!-- lib/sizeUtils.ts -->
<g id="node2" class="node">
<title>lib/sizeUtils.ts</title>
<path fill="none" stroke="#cfffac" d="M342.08,-23.75C342.08,-23.75 260.17,-23.75 260.17,-23.75 256.21,-23.75 252.25,-19.79 252.25,-15.83 252.25,-15.83 252.25,-7.92 252.25,-7.92 252.25,-3.96 256.21,0 260.17,0 260.17,0 342.08,0 342.08,0 346.04,0 350,-3.96 350,-7.92 350,-7.92 350,-15.83 350,-15.83 350,-19.79 346.04,-23.75 342.08,-23.75"/>
<text text-anchor="middle" x="301.12" y="-6.45" font-family="Arial" font-size="14.00" fill="#cfffac">lib/sizeUtils.ts</text>
</g>
<!-- config.ts&#45;&gt;lib/sizeUtils.ts -->
<g id="edge1" class="edge">
<title>config.ts&#45;&gt;lib/sizeUtils.ts</title>
<path fill="none" stroke="#757575" d="M114.29,-11.88C147.46,-11.88 199.93,-11.88 240.67,-11.88"/>
<polygon fill="#757575" stroke="#757575" points="240.58,-15.38 250.58,-11.88 240.58,-8.38 240.58,-15.38"/>
</g>
<!-- globals.d.ts -->
<g id="node3" class="node">
<title>globals.d.ts</title>
<path fill="none" stroke="#cfffac" d="M115.33,-65.75C115.33,-65.75 46.92,-65.75 46.92,-65.75 42.96,-65.75 39,-61.79 39,-57.83 39,-57.83 39,-49.92 39,-49.92 39,-45.96 42.96,-42 46.92,-42 46.92,-42 115.33,-42 115.33,-42 119.29,-42 123.25,-45.96 123.25,-49.92 123.25,-49.92 123.25,-57.83 123.25,-57.83 123.25,-61.79 119.29,-65.75 115.33,-65.75"/>
<text text-anchor="middle" x="81.12" y="-48.45" font-family="Arial" font-size="14.00" fill="#cfffac">globals.d.ts</text>
</g>
<!-- index.ts -->
<g id="node4" class="node">
<title>index.ts</title>
<path fill="none" stroke="#cfffac" d="M104.46,-107.75C104.46,-107.75 57.79,-107.75 57.79,-107.75 53.83,-107.75 49.88,-103.79 49.88,-99.83 49.88,-99.83 49.88,-91.92 49.88,-91.92 49.88,-87.96 53.83,-84 57.79,-84 57.79,-84 104.46,-84 104.46,-84 108.42,-84 112.38,-87.96 112.38,-91.92 112.38,-91.92 112.38,-99.83 112.38,-99.83 112.38,-103.79 108.42,-107.75 104.46,-107.75"/>
<text text-anchor="middle" x="81.12" y="-90.45" font-family="Arial" font-size="14.00" fill="#cfffac">index.ts</text>
</g>
<!-- lib/globalFetchMonitor.ts -->
<g id="node5" class="node">
<title>lib/globalFetchMonitor.ts</title>
<path fill="none" stroke="#c6c5fe" d="M154.33,-149.75C154.33,-149.75 7.92,-149.75 7.92,-149.75 3.96,-149.75 0,-145.79 0,-141.83 0,-141.83 0,-133.92 0,-133.92 0,-129.96 3.96,-126 7.92,-126 7.92,-126 154.33,-126 154.33,-126 158.29,-126 162.25,-129.96 162.25,-133.92 162.25,-133.92 162.25,-141.83 162.25,-141.83 162.25,-145.79 158.29,-149.75 154.33,-149.75"/>
<text text-anchor="middle" x="81.12" y="-132.45" font-family="Arial" font-size="14.00" fill="#c6c5fe">lib/globalFetchMonitor.ts</text>
</g>
<!-- lib/interceptedRequestLogger.ts -->
<g id="node6" class="node">
<title>lib/interceptedRequestLogger.ts</title>
<path fill="none" stroke="#cfffac" d="M396.08,-149.75C396.08,-149.75 206.17,-149.75 206.17,-149.75 202.21,-149.75 198.25,-145.79 198.25,-141.83 198.25,-141.83 198.25,-133.92 198.25,-133.92 198.25,-129.96 202.21,-126 206.17,-126 206.17,-126 396.08,-126 396.08,-126 400.04,-126 404,-129.96 404,-133.92 404,-133.92 404,-141.83 404,-141.83 404,-145.79 400.04,-149.75 396.08,-149.75"/>
<text text-anchor="middle" x="301.12" y="-132.45" font-family="Arial" font-size="14.00" fill="#cfffac">lib/interceptedRequestLogger.ts</text>
</g>
<!-- lib/globalFetchMonitor.ts&#45;&gt;lib/interceptedRequestLogger.ts -->
<g id="edge2" class="edge">
<title>lib/globalFetchMonitor.ts&#45;&gt;lib/interceptedRequestLogger.ts</title>
<path fill="none" stroke="#757575" d="M162.68,-137.88C170.51,-137.88 178.55,-137.88 186.63,-137.88"/>
<polygon fill="#757575" stroke="#757575" points="186.54,-141.38 196.54,-137.88 186.54,-134.38 186.54,-141.38"/>
</g>
</g>
</svg>
